<?xml version="1.0" encoding="UTF-8" standalone="no"?>
<svg
   xmlns:dc="http://purl.org/dc/elements/1.1/"
   xmlns:cc="http://creativecommons.org/ns#"
   xmlns:rdf="http://www.w3.org/1999/02/22-rdf-syntax-ns#"
   xmlns:svg="http://www.w3.org/2000/svg"
   xmlns="http://www.w3.org/2000/svg"
   xmlns:sodipodi="http://sodipodi.sourceforge.net/DTD/sodipodi-0.dtd"
   xmlns:inkscape="http://www.inkscape.org/namespaces/inkscape"
   width="60.246475mm"
   height="39.164829mm"
   viewBox="0 0 60.246475 39.164829"
   version="1.1"
   id="svg8"
   inkscape:version="1.0.2-2 (e86c870879, 2021-01-15)"
   sodipodi:docname="paladin.svg"
   inkscape:export-xdpi="216.60661"
   inkscape:export-ydpi="216.60661">
  <defs
     id="defs2">
    <inkscape:path-effect
       effect="fillet_chamfer"
       id="path-effect10"
       is_visible="true"
       lpeversion="1"
       satellites_param="F,0,0,1,0,1.0583333,0,1 @ F,0,0,1,0,1.0583333,0,1 @ F,0,0,1,0,1.0583333,0,1 @ F,0,0,1,0,1.0583333,0,1 @ F,0,0,1,0,1.0583333,0,1 @ F,0,0,1,0,1.0583333,0,1 @ F,0,0,1,0,1.0583333,0,1 @ F,0,0,1,0,1.0583333,0,1 @ F,0,0,1,0,1.0583333,0,1 @ F,0,0,1,0,1.0583333,0,1 @ F,0,0,1,0,1.0583333,0,1 @ F,0,0,1,0,1.0583333,0,1 @ F,0,0,1,0,1.0583333,0,1 | F,0,0,1,0,1.0583333,0,1 @ F,0,0,1,0,1.0583333,0,1 @ F,0,0,1,0,1.0583333,0,1 @ F,0,0,1,0,1.0583333,0,1 @ F,0,0,1,0,1.0583333,0,1 @ F,0,0,1,0,1.0583333,0,1 @ F,0,0,1,0,1.0583333,0,1 @ F,0,0,1,0,1.0583333,0,1 @ F,0,0,1,0,1.0583333,0,1 | F,0,0,1,0,1.0583333,0,1 @ F,0,0,1,0,1.0583333,0,1 @ F,0,0,1,0,1.0583333,0,1 @ F,0,0,1,0,1.0583333,0,1 @ F,0,0,1,0,1.0583333,0,1 @ F,0,0,1,0,1.0583333,0,1 @ F,0,0,1,0,1.0583333,0,1 @ F,0,0,1,0,1.0583333,0,1 @ F,0,0,1,0,1.0583333,0,1 | F,0,0,1,0,1.0583333,0,1 @ F,0,0,1,0,1.0583333,0,1 @ F,0,0,1,0,1.0583333,0,1 @ F,0,0,1,0,1.0583333,0,1 @ F,0,0,1,0,1.0583333,0,1 @ F,0,0,1,0,1.0583333,0,1 @ F,0,0,1,0,1.0583333,0,1 @ F,0,0,1,0,1.0583333,0,1 @ F,0,0,1,0,1.0583333,0,1"
       unit="px"
       method="auto"
       mode="F"
       radius="4"
       chamfer_steps="1"
       flexible="false"
       use_knot_distance="true"
       apply_no_radius="true"
       apply_with_radius="true"
       only_selected="false"
       hide_knots="false" />
  </defs>
  <sodipodi:namedview
     id="base"
     pagecolor="#ffffff"
     bordercolor="#666666"
     borderopacity="1.0"
     inkscape:pageopacity="0.0"
     inkscape:pageshadow="2"
     inkscape:zoom="3.959798"
     inkscape:cx="54.541546"
     inkscape:cy="66.266229"
     inkscape:document-units="mm"
     inkscape:current-layer="layer1"
     inkscape:document-rotation="0"
     showgrid="false"
     fit-margin-top="0"
     fit-margin-left="0"
     fit-margin-right="0"
     fit-margin-bottom="0"
     inkscape:window-width="1920"
     inkscape:window-height="1002"
     inkscape:window-x="-8"
     inkscape:window-y="-8"
     inkscape:window-maximized="1"
     inkscape:pagecheckerboard="true" />
  <metadata
     id="metadata5">
    <rdf:RDF>
      <cc:Work
         rdf:about="">
        <dc:format>image/svg+xml</dc:format>
        <dc:type
           rdf:resource="http://purl.org/dc/dcmitype/StillImage" />
        <dc:title></dc:title>
      </cc:Work>
    </rdf:RDF>
  </metadata>
  <g
     inkscape:label="Taso 1"
     inkscape:groupmode="layer"
     id="layer1"
     transform="translate(-75.710096,-128.58425)">
    <path
       style="fill:#ffffff;stroke-width:0.176389;fill-opacity:1"
       d="m 80.914057,158.25221 c -1.85244,-2.8506 -3.423211,-5.33125 -4.194165,-6.61519 -0.300352,-0.5002 -0.261075,-1.32869 0.08742,-1.79652 2.046557,-2.74735 8.773169,-11.1485 11.003131,-13.74334 0.379966,-0.44213 1.170537,-0.62429 1.719523,-0.42421 1.302952,0.47486 3.750737,1.39154 6.585374,2.46782 0.545057,0.20696 1.429536,0.54385 1.976131,0.75091 2.889562,1.09463 5.406832,2.02394 6.739322,2.4911 0.54895,0.19246 1.45796,0.19186 2.00914,-0.001 1.33417,-0.46784 3.85097,-1.39702 6.73929,-2.4912 0.54437,-0.20623 1.42817,-0.54286 1.97461,-0.75033 2.8354,-1.07657 5.28345,-1.9933 6.58539,-2.46776 0.5476,-0.19956 1.33696,-0.0169 1.71691,0.42522 2.2298,2.59488 8.9563,10.99521 11.00307,13.7422 0.34854,0.46778 0.38972,1.29716 0.0889,1.797 -1.769,2.93922 -7.65358,11.97412 -9.62234,14.77547 -0.33512,0.47683 -1.10404,0.72961 -1.66966,0.58251 -1.41231,-0.36731 -4.13894,-1.0968 -7.30182,-1.95508 -0.56319,-0.15283 -1.47686,-0.4015 -2.04103,-0.55432 -3.21698,-0.87143 -6.01215,-1.61056 -7.45168,-1.97279 -0.56537,-0.14226 -1.49211,-0.14202 -2.05874,5.7e-4 -1.44053,0.36252 -4.23541,1.1016 -7.451655,1.97283 -0.56292,0.15249 -1.47631,0.40108 -2.040412,0.55415 -3.163382,0.85839 -5.890183,1.58779 -7.301793,1.9546 -0.564696,0.14674 -1.32766,-0.11103 -1.662734,-0.58839 -0.845402,-1.20439 -2.442217,-3.58503 -4.275207,-6.38135 -0.320431,-0.48884 -0.83847,-1.28238 -1.156962,-1.77248 z m 16.712477,1.55062 c 2.147459,-1.01352 3.921486,-2.79238 4.929536,-4.94297 0.24796,-0.52901 0.55313,-1.43092 0.65503,-2.00588 0.19874,-1.12135 0.19905,-2.4286 0.001,-3.52759 -0.10336,-0.57456 -0.42302,-1.47165 -0.67592,-1.99833 -1.04468,-2.17572 -2.808302,-3.93342 -4.949055,-4.93324 -0.52934,-0.24722 -1.430884,-0.55289 -2.00507,-0.65946 -1.115983,-0.20712 -2.371651,-0.20711 -3.487617,4e-5 -0.574072,0.10656 -1.475521,0.41219 -2.004875,0.65936 -2.139873,0.99917 -3.901463,2.75474 -4.949827,4.93376 -0.253309,0.5265 -0.571918,1.42416 -0.670267,1.99955 -0.18892,1.10529 -0.188912,2.46202 2.4e-5,3.56729 0.09835,0.57532 0.416866,1.47293 0.670248,1.99939 1.270127,2.63895 3.578115,4.62568 6.348765,5.46565 0.55912,0.16951 1.498939,0.32274 2.082278,0.30631 0.637676,-0.018 1.394109,-0.0967 2.049034,-0.21417 0.574447,-0.10304 1.026741,-0.25031 1.026846,-0.25031 z m 24.134516,-0.0675 c 0.8327,-0.39717 1.55487,-0.88865 2.27648,-1.5486 0.43125,-0.39441 1.08003,-1.08806 1.44087,-1.54766 1.0973,-1.39764 1.66834,-2.83233 1.8138,-4.55832 0.0491,-0.58222 0.0396,-1.53255 -0.0221,-2.11356 -0.17868,-1.68299 -0.76482,-3.09337 -1.85963,-4.47659 -0.36265,-0.45818 -1.01281,-1.15099 -1.45242,-1.53584 -2.92622,-2.56171 -6.83619,-3.10307 -10.1862,-1.41318 -0.5216,0.26312 -1.31558,0.78657 -1.76448,1.1604 -0.66045,0.55001 -1.31951,1.22568 -1.83454,1.88013 -0.36115,0.4589 -0.84992,1.27478 -1.09754,1.80401 -0.4062,0.86814 -0.61742,1.67701 -0.69751,2.6682 -0.0471,0.58245 -0.0484,1.53189 -0.0121,2.11517 0.0168,0.27032 0.0425,0.50771 0.0793,0.72954 0.0955,0.57577 0.43079,1.46927 0.68418,1.99573 1.27013,2.63895 3.57811,4.62568 6.34876,5.46565 0.55912,0.16951 1.4985,0.32799 2.08183,0.31303 0.68357,-0.0175 1.49524,-0.11156 2.20401,-0.2566 0.5719,-0.11703 1.46992,-0.42999 1.99728,-0.68151 z M 96.105538,134.51606 c -2.908727,-1.04015 -5.415819,-1.9374 -6.737761,-2.41124 -0.550218,-0.19722 -0.983177,-0.83231 -0.825935,-1.38581 0.06201,-0.21829 0.133802,-0.44844 0.207916,-0.66573 0.187948,-0.55104 0.887581,-0.86864 1.443855,-0.69566 1.285751,0.39984 3.66363,1.20318 6.423514,2.17474 0.551333,0.19408 1.444363,0.5112 1.995198,0.7067 l 6.311825,2.24021 a 2.9818721,2.9818721 179.99999 0 0 1.99476,0 l 6.31181,-2.24021 c 0.55084,-0.1955 1.44387,-0.51262 1.99521,-0.7067 2.75989,-0.97156 5.13777,-1.77491 6.42352,-2.17474 0.55627,-0.17298 1.23727,0.15288 1.43416,0.70187 0.0718,0.20012 0.14376,0.41094 0.20913,0.61218 0.17922,0.55174 -0.18437,1.19533 -0.73311,1.39608 -3.10476,1.1358 -12.63507,4.4983 -15.75559,5.55889 -0.54945,0.18675 -1.44906,0.17443 -2.00071,-0.0188 -1.31857,-0.46184 -3.81061,-1.34592 -6.70542,-2.37962 -0.550021,-0.19641 -1.442001,-0.51535 -1.992372,-0.71216 z"
       id="path28"
       inkscape:path-effect="#path-effect10"
       inkscape:original-d="m 81.491665,159.13902 c -2.910417,-4.4583 -5.287119,-8.25058 -5.281559,-8.42729 0.01178,-0.37428 12.033392,-15.3872 12.32056,-15.38625 0.106119,2.6e-4 3.963257,1.43606 8.571415,3.19046 4.608159,1.7544 8.537219,3.18981 8.731249,3.18981 0.19403,0 4.12309,-1.43541 8.73125,-3.18981 4.60816,-1.7544 8.4653,-3.19011 8.57142,-3.19046 0.28659,-7.9e-4 12.30876,15.01157 12.32056,15.38512 0.0126,0.39932 -10.4987,16.53552 -10.77334,16.53848 -0.11007,0.001 -4.31694,-1.11785 -9.34861,-2.48674 -5.03168,-1.36889 -9.30725,-2.48889 -9.50128,-2.48889 -0.19403,0 -4.4696,1.12 -9.501271,2.48889 -5.031674,1.36889 -9.238549,2.48749 -9.348613,2.48579 -0.110063,-0.002 -2.581364,-3.6508 -5.491781,-8.10911 z m 15.155349,1.06321 c 2.917343,-1.00849 5.304666,-3.40228 6.305906,-6.32297 0.54602,-1.59276 0.54301,-4.05533 -0.007,-5.57574 -1.07214,-2.96482 -3.432537,-5.31199 -6.339604,-6.3041 -1.638543,-0.55919 -3.896693,-0.55919 -5.535236,0 -2.905967,0.99173 -5.261887,3.33374 -6.341545,6.3041 -0.5352,1.47244 -0.5352,4.14381 0,5.61625 1.257543,3.45976 4.219348,6.00633 7.786246,6.69466 0.863378,0.16661 3.103195,-0.0569 4.131043,-0.4122 z m 24.137296,-0.0605 c 1.59475,-0.57886 2.74439,-1.35433 4.00392,-2.70077 1.80975,-1.93463 2.56686,-3.84668 2.54115,-6.41751 -0.0252,-2.51616 -0.80386,-4.40494 -2.61097,-6.33313 -3.23675,-3.4536 -8.04128,-4.10999 -11.86311,-1.62071 -1.19994,0.78155 -2.61575,2.23939 -3.28435,3.38182 -0.92203,1.57549 -1.23189,2.74768 -1.23189,4.66022 0,1.36425 0.086,2.00047 0.37955,2.80812 1.25755,3.45976 4.21935,6.00633 7.78625,6.69466 0.94889,0.18311 3.13926,-0.0588 4.27945,-0.4727 z M 97.102081,134.87239 c -4.705173,-1.68229 -8.633793,-3.08876 -8.730266,-3.12549 -0.169598,-0.0646 0.515911,-2.33713 0.802,-2.65875 0.074,-0.0832 3.872516,1.17542 8.441134,2.79692 l 8.306581,2.94819 8.30657,-2.94819 c 4.56862,-1.6215 8.36713,-2.88012 8.44114,-2.79692 0.19392,0.21801 0.96915,2.51357 0.87886,2.60241 -0.12406,0.12204 -17.58279,6.28188 -17.74355,6.26032 -0.0812,-0.0109 -3.99729,-1.3962 -8.702469,-3.07849 z"
       inkscape:export-xdpi="216.60663"
       inkscape:export-ydpi="216.60663" />
  </g>
</svg>
